<svg width="25" height="25" viewBox="0 0 25 25" fill="none" xmlns="http://www.w3.org/2000/svg">
<path d="M12.5 14.2998C15.6125 14.2998 18.125 11.7873 18.125 8.6748C18.125 5.5623 15.6125 3.0498 12.5 3.0498C9.3875 3.0498 6.875 5.5623 6.875 8.6748C6.875 11.7873 9.3875 14.2998 12.5 14.2998ZM12.5 4.7373C14.675 4.7373 16.4375 6.4998 16.4375 8.6748C16.4375 10.8498 14.675 12.6123 12.5 12.6123C10.325 12.6123 8.5625 10.8498 8.5625 8.6748C8.5625 6.4998 10.325 4.7373 12.5 4.7373Z" fill="#111111"/>
<path d="M23.5626 20.45C20.4876 17.8625 16.5876 16.4375 12.5001 16.4375C8.41265 16.4375 4.51265 17.8625 1.43765 20.45C1.10015 20.75 1.02515 21.275 1.32515 21.65C1.62515 21.9875 2.15015 22.0625 2.52515 21.7625C5.30015 19.4 8.82515 18.125 12.5001 18.125C16.1751 18.125 19.7001 19.4 22.4376 21.725C22.5876 21.875 22.7751 21.9125 23.0001 21.9125C23.2251 21.9125 23.4876 21.8 23.6376 21.6125C23.9376 21.275 23.9001 20.75 23.5626 20.45Z" fill="#111111"/>
</svg>
