<svg width="146" height="42" viewBox="0 0 146 42" fill="none" xmlns="http://www.w3.org/2000/svg">
<g filter="url(#filter0_i_1182_8159)">
<rect width="146" height="42" rx="12" fill="white"/>
<path d="M29.5617 19.9121H26.9742C26.5242 19.9121 26.1492 20.2871 26.1492 20.7371C26.1492 21.1871 26.5242 21.5996 26.9742 21.5996H29.5617C29.6367 21.5996 29.6742 21.6371 29.6742 21.7121V25.9496C29.6742 26.8496 28.9617 27.5621 28.0617 27.5621H11.9742C11.0742 27.5621 10.3617 26.8496 10.3617 25.9496V21.7121C10.3617 21.6371 10.3992 21.5996 10.4742 21.5996H13.0617C13.5117 21.5996 13.8867 21.2246 13.8867 20.7371C13.8867 20.2496 13.5117 19.9121 13.0617 19.9121H10.4367C9.46172 19.9121 8.63672 20.7371 8.63672 21.7121V25.9496C8.63672 27.7871 10.1367 29.2496 11.9367 29.2496H28.0242C29.8617 29.2496 31.3242 27.7496 31.3242 25.9496V21.7121C31.3242 20.7371 30.5367 19.9121 29.5617 19.9121Z" fill="#505050"/>
<path d="M16.7738 17.9623L19.1738 15.5998V22.3123C19.1738 22.7623 19.5488 23.1373 19.9988 23.1373C20.4488 23.1373 20.8238 22.7623 20.8238 22.3123V15.6373L23.1863 17.9623C23.3363 18.1123 23.5613 18.1873 23.7863 18.1873C24.0113 18.1873 24.2363 18.1123 24.3863 17.9248C24.7238 17.5873 24.7238 17.0623 24.3863 16.7248L20.5613 12.9748C20.2238 12.6373 19.6988 12.6373 19.3613 12.9748L15.5363 16.7248C15.1988 17.0623 15.1988 17.5873 15.5363 17.9248C15.9113 18.2623 16.4363 18.2623 16.7738 17.9623Z" fill="#505050"/>
<path d="M41.776 27.192C38.88 27.192 37.152 25.8 37.152 22.936V16.024H39.232V22.872C39.232 24.568 40.16 25.432 41.776 25.432C43.392 25.432 44.352 24.568 44.352 22.872V16.024H46.432V22.936C46.432 25.8 44.688 27.192 41.776 27.192ZM48.6181 29.768V18.584H50.2341L50.3941 19.704H50.5061C51.0501 18.824 51.9941 18.392 53.0821 18.392C55.1461 18.392 56.4261 19.736 56.4261 22.808C56.4261 25.832 55.0661 27.192 53.1941 27.192C52.0421 27.192 51.1781 26.808 50.6661 26.024H50.5701V29.768H48.6181ZM52.4741 25.512C53.8981 25.512 54.4101 24.68 54.4101 22.92V22.696C54.4101 20.904 53.8981 20.072 52.4741 20.072C51.1461 20.072 50.5701 21 50.5701 22.696V22.888C50.5701 24.568 51.1461 25.512 52.4741 25.512ZM58.0869 27V15.432H60.0389V27H58.0869ZM65.8621 27.192C63.1101 27.192 61.7021 25.816 61.7021 22.792C61.7021 19.768 63.1101 18.392 65.8621 18.392C68.6301 18.392 70.0221 19.768 70.0221 22.792C70.0221 25.816 68.6301 27.192 65.8621 27.192ZM65.8621 25.592C67.3981 25.592 68.0061 24.712 68.0061 22.904V22.68C68.0061 20.888 67.3981 19.992 65.8621 19.992C64.3261 19.992 63.7181 20.888 63.7181 22.68V22.904C63.7181 24.712 64.3261 25.592 65.8621 25.592ZM73.8406 27.192C72.8966 27.192 71.1846 26.872 71.1846 24.824C71.1846 22.536 73.3446 21.896 76.4326 21.896V21.208C76.4326 20.488 76.1926 19.928 75.0246 19.928C73.8246 19.928 73.5046 20.424 73.5046 20.856V21.08H71.6166C71.6006 20.984 71.6006 20.872 71.6006 20.728C71.6006 19.288 72.9766 18.392 75.0086 18.392C77.2966 18.392 78.3846 19.384 78.3846 21.064V25.032C78.3846 25.432 78.6566 25.592 78.9446 25.592H79.4566V26.936C79.2326 27.032 78.8326 27.176 78.2406 27.176C77.4086 27.176 76.8166 26.744 76.6246 26.04H76.5286C75.9686 26.728 75.1526 27.192 73.8406 27.192ZM74.4326 25.592C75.7126 25.592 76.4326 24.792 76.4326 23.624V23.24C74.6566 23.24 73.1846 23.512 73.1846 24.632C73.1846 25.224 73.6006 25.592 74.4326 25.592ZM83.4993 27.192C81.4353 27.192 80.1553 25.848 80.1553 22.776C80.1553 19.752 81.5153 18.392 83.3873 18.392C84.5393 18.392 85.4033 18.792 85.9153 19.56H86.0113V15.432H87.9633V27H86.3473L86.1873 25.88H86.0753C85.5313 26.76 84.5873 27.192 83.4993 27.192ZM84.1073 25.512C85.4513 25.512 86.0113 24.584 86.0113 22.92V22.712C86.0113 21.032 85.4353 20.072 84.1073 20.072C82.6833 20.072 82.1713 20.904 82.1713 22.696V22.92C82.1713 24.68 82.6833 25.512 84.1073 25.512ZM93.2431 17.288V15.432H95.1951V17.288H93.2431ZM93.2431 27V18.584H95.1951V27H93.2431ZM97.2744 27V18.584H98.9064L99.0664 19.704H99.1784C99.7064 18.936 100.506 18.392 101.61 18.392C102.586 18.392 103.386 18.76 103.818 19.704H103.93C104.458 18.952 105.322 18.392 106.458 18.392C107.946 18.392 109.034 19.144 109.034 21.224V27H107.082V21.624C107.082 20.472 106.554 20.104 105.77 20.104C104.842 20.104 104.138 20.936 104.138 22.104V27H102.186V21.624C102.186 20.472 101.658 20.104 100.874 20.104C99.9464 20.104 99.2264 20.936 99.2264 22.104V27H97.2744ZM113.216 27.192C112.272 27.192 110.56 26.872 110.56 24.824C110.56 22.536 112.72 21.896 115.808 21.896V21.208C115.808 20.488 115.568 19.928 114.4 19.928C113.2 19.928 112.88 20.424 112.88 20.856V21.08H110.992C110.976 20.984 110.976 20.872 110.976 20.728C110.976 19.288 112.352 18.392 114.384 18.392C116.672 18.392 117.76 19.384 117.76 21.064V25.032C117.76 25.432 118.032 25.592 118.32 25.592H118.832V26.936C118.608 27.032 118.208 27.176 117.616 27.176C116.784 27.176 116.192 26.744 116 26.04H115.904C115.344 26.728 114.528 27.192 113.216 27.192ZM113.808 25.592C115.088 25.592 115.808 24.792 115.808 23.624V23.24C114.032 23.24 112.56 23.512 112.56 24.632C112.56 25.224 112.976 25.592 113.808 25.592ZM121.338 29.912C120.218 29.912 119.178 29.24 119.178 27.944C119.178 27 119.834 26.504 120.49 26.216C119.994 25.96 119.658 25.528 119.658 24.936C119.658 24.136 120.362 23.64 121.13 23.496C120.346 23 119.914 22.216 119.914 21.24C119.914 19.496 121.226 18.392 123.546 18.392C124.17 18.392 124.746 18.472 125.226 18.648C125.978 18.2 126.202 17.56 126.218 17.192H128.122C128.122 18.328 127.45 19.048 126.378 19.304C126.906 19.784 127.194 20.456 127.194 21.24C127.194 23 125.93 24.104 123.642 24.104H122.346C121.898 24.104 121.642 24.312 121.642 24.648C121.642 24.936 121.866 25.176 122.282 25.176H125.962C127.226 25.176 128.138 26.088 128.138 27.368C128.138 28.808 126.938 29.912 125.146 29.912H121.338ZM123.562 22.728C124.682 22.728 125.258 22.184 125.258 21.24C125.258 20.312 124.682 19.768 123.562 19.768C122.426 19.768 121.866 20.312 121.866 21.24C121.866 22.184 122.426 22.728 123.562 22.728ZM122.042 28.504H125.13C125.722 28.504 126.17 28.168 126.17 27.672C126.17 27.128 125.77 26.84 125.258 26.84H122.042C121.53 26.84 121.146 27.176 121.146 27.672C121.146 28.168 121.514 28.504 122.042 28.504ZM133.015 27.192C130.311 27.192 128.983 25.816 128.983 22.792C128.983 19.768 130.327 18.392 133.015 18.392C135.447 18.392 136.711 19.704 136.711 22.696V23.272H130.983C131.031 24.856 131.591 25.656 133.031 25.656C134.023 25.656 134.791 25.144 134.791 24.056H136.711C136.711 26.2 135.111 27.192 133.015 27.192ZM131.015 21.896H134.679C134.679 20.488 134.023 19.944 133.015 19.944C131.751 19.944 131.159 20.568 131.015 21.896Z" fill="#505050"/>
</g>
<defs>
<filter id="filter0_i_1182_8159" x="0" y="0" width="146" height="44" filterUnits="userSpaceOnUse" color-interpolation-filters="sRGB">
<feFlood flood-opacity="0" result="BackgroundImageFix"/>
<feBlend mode="normal" in="SourceGraphic" in2="BackgroundImageFix" result="shape"/>
<feColorMatrix in="SourceAlpha" type="matrix" values="0 0 0 0 0 0 0 0 0 0 0 0 0 0 0 0 0 0 127 0" result="hardAlpha"/>
<feOffset dy="2"/>
<feGaussianBlur stdDeviation="2"/>
<feComposite in2="hardAlpha" operator="arithmetic" k2="-1" k3="1"/>
<feColorMatrix type="matrix" values="0 0 0 0 0 0 0 0 0 0 0 0 0 0 0 0 0 0 0.15 0"/>
<feBlend mode="normal" in2="shape" result="effect1_innerShadow_1182_8159"/>
</filter>
</defs>
</svg>
