<svg width="18" height="19" viewBox="0 0 18 19" fill="none" xmlns="http://www.w3.org/2000/svg">
<path d="M6.10273 1.45605H2.53086C1.57461 1.45605 0.787109 2.24355 0.787109 3.1998V6.77168C0.787109 7.72793 1.57461 8.51543 2.53086 8.51543H6.10273C7.05898 8.51543 7.84648 7.72793 7.84648 6.77168V3.22793C7.87461 2.24355 7.08711 1.45605 6.10273 1.45605ZM6.60898 6.7998C6.60898 7.08105 6.38398 7.30606 6.10273 7.30606H2.53086C2.24961 7.30606 2.02461 7.08105 2.02461 6.7998V3.22793C2.02461 2.94668 2.24961 2.72168 2.53086 2.72168H6.10273C6.38398 2.72168 6.60898 2.94668 6.60898 3.22793V6.7998Z" fill="#FAFAFA"/>
<path d="M15.468 1.45605H11.8961C10.9398 1.45605 10.1523 2.24355 10.1523 3.1998V6.77168C10.1523 7.72793 10.9398 8.51543 11.8961 8.51543H15.468C16.4242 8.51543 17.2117 7.72793 17.2117 6.77168V3.22793C17.2117 2.24355 16.4242 1.45605 15.468 1.45605ZM15.9742 6.7998C15.9742 7.08105 15.7492 7.30606 15.468 7.30606H11.8961C11.6148 7.30606 11.3898 7.08105 11.3898 6.7998V3.22793C11.3898 2.94668 11.6148 2.72168 11.8961 2.72168H15.468C15.7492 2.72168 15.9742 2.94668 15.9742 3.22793V6.7998Z" fill="#FAFAFA"/>
<path d="M6.10273 10.4277H2.53086C1.57461 10.4277 0.787109 11.2152 0.787109 12.1715V15.7434C0.787109 16.6996 1.57461 17.4871 2.53086 17.4871H6.10273C7.05898 17.4871 7.84648 16.6996 7.84648 15.7434V12.1996C7.87461 11.2152 7.08711 10.4277 6.10273 10.4277ZM6.60898 15.7715C6.60898 16.0527 6.38398 16.2777 6.10273 16.2777H2.53086C2.24961 16.2777 2.02461 16.0527 2.02461 15.7715V12.1996C2.02461 11.9184 2.24961 11.6934 2.53086 11.6934H6.10273C6.38398 11.6934 6.60898 11.9184 6.60898 12.1996V15.7715Z" fill="#FAFAFA"/>
<path d="M15.468 10.4277H11.8961C10.9398 10.4277 10.1523 11.2152 10.1523 12.1715V15.7434C10.1523 16.6996 10.9398 17.4871 11.8961 17.4871H15.468C16.4242 17.4871 17.2117 16.6996 17.2117 15.7434V12.1996C17.2117 11.2152 16.4242 10.4277 15.468 10.4277ZM15.9742 15.7715C15.9742 16.0527 15.7492 16.2777 15.468 16.2777H11.8961C11.6148 16.2777 11.3898 16.0527 11.3898 15.7715V12.1996C11.3898 11.9184 11.6148 11.6934 11.8961 11.6934H15.468C15.7492 11.6934 15.9742 11.9184 15.9742 12.1996V15.7715Z" fill="#FAFAFA"/>
</svg>
