<svg width="18" height="16" viewBox="0 0 18 16" fill="none" xmlns="http://www.w3.org/2000/svg">
<path d="M17.2689 14.6657L12.6283 10.897C14.5408 8.28135 14.3439 4.54072 11.9533 2.17822C10.6877 0.912598 9.0002 0.209473 7.2002 0.209473C5.4002 0.209473 3.7127 0.912598 2.44707 2.17822C-0.168555 4.79385 -0.168555 9.06885 2.44707 11.6845C3.7127 12.9501 5.4002 13.6532 7.2002 13.6532C8.91582 13.6532 10.5189 13.0063 11.7846 11.8532L16.4814 15.6501C16.5939 15.7345 16.7346 15.7907 16.8752 15.7907C17.0721 15.7907 17.2408 15.7063 17.3533 15.5657C17.5783 15.2845 17.5502 14.8907 17.2689 14.6657ZM7.2002 12.3876C5.7377 12.3876 4.3877 11.8251 3.34707 10.7845C1.20957 8.64697 1.20957 5.1876 3.34707 3.07822C4.3877 2.0376 5.7377 1.4751 7.2002 1.4751C8.66269 1.4751 10.0127 2.0376 11.0533 3.07822C13.1908 5.21572 13.1908 8.6751 11.0533 10.7845C10.0408 11.8251 8.66269 12.3876 7.2002 12.3876Z" fill="#4F4F4F"/>
</svg>
