<svg width="51" height="50" viewBox="0 0 51 50" fill="none" xmlns="http://www.w3.org/2000/svg">
<rect x="0.5" width="50" height="50" rx="25" fill="#E0FFED"/>
<path d="M31.2123 17.2629C30.9498 14.7879 28.9248 12.7629 26.3748 12.4254C24.0498 12.1629 21.8748 13.3254 20.8248 15.3504C20.5998 15.7629 20.7873 16.2879 21.1998 16.4754C21.6123 16.7004 22.1373 16.5129 22.3248 16.1004C23.0748 14.6754 24.5748 13.8879 26.1873 14.0379C27.9498 14.2629 29.3373 15.6879 29.5248 17.3754C29.7123 18.9879 28.8498 20.5254 27.3873 21.2004C25.8498 21.9504 24.8748 23.5254 24.8748 25.2879V29.0004C24.8748 29.4504 25.2498 29.8629 25.7373 29.8629C26.2248 29.8629 26.5998 29.4879 26.5998 29.0004V25.2879C26.5998 24.2004 27.2373 23.1879 28.1748 22.7379C30.2373 21.8379 31.4748 19.5879 31.2123 17.2629Z" fill="#0BA348"/>
<path d="M25.7375 31.7002C25.2875 31.7002 24.875 32.0752 24.875 32.5627V32.7502C24.875 33.2002 25.25 33.6127 25.7375 33.6127C26.225 33.6127 26.6 33.2377 26.6 32.7502V32.5627C26.5625 32.0752 26.1875 31.7002 25.7375 31.7002Z" fill="#0BA348"/>
</svg>
